<?xml version="1.0" encoding="utf-8"?>
<!-- Generator: Adobe Illustrator 26.0.3, SVG Export Plug-In . SVG Version: 6.00 Build 0)  -->
<svg version="1.1" id="Logo" xmlns="http://www.w3.org/2000/svg" xmlns:xlink="http://www.w3.org/1999/xlink" x="0px" y="0px"
	 viewBox="0 0 430.7 204.7" style="enable-background:new 0 0 430.7 204.7;" xml:space="preserve">
<style type="text/css">
	.st0{fill:#E30613;}
	.st1{fill:none;stroke:#000000;stroke-width:5;stroke-miterlimit:10;}
</style>
<g>
	<path d="M209,144.6h25.4v11.8h-10.1v10.9h9.6v10.9h-9.6V191h10.9v11.8H209V144.6z"/>
	<path d="M239.6,144.6H251c7.4,0,12.3,0.4,14.9,0.9s4.4,1.8,5.7,3.5c1.3,1.8,2.2,3.1,2.6,5.3c0.4,1.8,0.4,5.7,0.4,10.9v20.6
		c0,5.3-0.4,8.8-0.9,10.5c-0.4,1.8-1.3,3.1-2.6,3.9c-1.3,0.9-2.6,1.8-4.4,2.2c-1.8,0.4-4.4,0.4-8.3,0.4h-19.3v-58.2H239.6z
		 M254.9,154.6v38.1c2.2,0,3.5-0.4,3.9-1.3c0.4-0.9,0.9-3.1,0.9-7v-22.8c0-2.6,0-4.4-0.4-5.3c0-0.9-0.4-1.3-1.3-1.8
		C257.5,154.6,256.2,154.6,254.9,154.6z"/>
	<path d="M280.3,144.6h25.4v11.8h-10.1v10.9h9.6v10.9h-9.6V191h10.9v11.8h-26.3V144.6z"/>
	<path d="M310.9,144.6h10.5c7,0,11.8,0.4,14.4,0.9c2.6,0.4,4.4,1.8,6.1,4.4c1.8,2.2,2.2,5.7,2.2,10.9c0,4.4-0.4,7.4-1.8,9.2
		c-1.3,1.8-3.5,2.6-6.6,2.6c3.1,0.9,4.8,1.8,6.1,3.1c0.9,1.3,1.8,2.2,1.8,3.5c0.4,0.9,0.4,3.9,0.4,8.8v15.3h-14V184
		c0-3.1-0.4-5.3-0.9-5.7c-0.4-0.9-1.8-1.3-3.9-1.3v26.3h-15.3v-58.6H310.9z M325.8,154.6v13.1c1.8,0,3.1-0.4,3.5-0.9
		c0.9-0.4,0.9-2.2,0.9-4.4v-3.1c0-1.8-0.4-3.1-0.9-3.5C328.9,155.1,327.6,154.6,325.8,154.6z"/>
</g>
<g>
	<path d="M242.2,90.7h-14v-4.4c0-2.2,0-3.5-0.4-3.9c-0.4-0.4-0.9-0.9-1.8-0.9s-1.8,0.4-2.2,1.3c-0.4,0.9-0.9,1.8-0.9,3.5
		c0,1.8,0.4,3.5,0.9,4.4c0.4,0.9,1.8,2.2,4.4,3.5c6.6,3.9,10.9,7.4,12.7,9.6c1.8,2.6,2.6,6.6,2.6,12.3c0,3.9-0.4,7-1.3,9.2
		c-0.9,1.8-2.6,3.5-5.7,4.8c-3.1,1.3-6.1,2.2-9.6,2.2c-3.9,0-7.4-0.9-10.5-2.2c-3.1-1.8-4.8-3.5-5.7-5.7c-0.9-2.2-1.3-5.7-1.3-10.1
		v-3.9h14v7c0,2.2,0,3.5,0.4,4.4c0.4,0.4,1.3,0.9,2.2,0.9s1.8-0.4,2.2-1.3c0.4-0.9,0.9-1.8,0.9-3.5c0-3.5-0.4-5.7-1.3-6.6
		c-0.9-0.9-3.5-2.6-7-5.3c-3.9-2.6-6.1-4.4-7.4-5.3c-1.3-1.3-2.2-2.6-3.1-4.8s-1.3-4.4-1.3-7.4c0-4.4,0.4-7.9,1.8-9.6
		c1.3-2.2,3.1-3.5,5.7-4.8s5.7-1.8,9.2-1.8c3.9,0,7.4,0.4,10.1,1.8s4.8,3.1,5.7,4.8c0.9,1.8,1.3,5.3,1.3,9.6v2.2H242.2z"/>
	<path d="M283.8,98.2h-15.3V88.1c0-3.1,0-4.8-0.4-5.7c-0.4-0.9-0.9-0.9-2.2-0.9c-1.3,0-2.2,0.4-2.2,1.3c0,0.9-0.4,2.6-0.4,5.7v27.1
		c0,2.6,0,4.8,0.4,5.7s0.9,1.3,2.2,1.3c1.3,0,1.8-0.4,2.2-1.3c0.4-0.9,0.4-3.1,0.4-6.1v-7.4h15.3v2.2c0,6.1-0.4,10.5-1.3,12.7
		c-0.9,2.6-2.6,4.8-5.7,6.6c-3.1,1.8-6.6,2.6-10.9,2.6s-7.9-0.9-10.9-2.2c-3.1-1.3-4.8-3.9-5.7-6.6c-0.9-2.6-1.3-7-1.3-12.7V93.4
		c0-4.4,0-7.4,0.4-9.6c0.4-2.2,1.3-3.9,2.6-6.1c1.3-2.2,3.5-3.5,6.1-4.4s5.3-1.8,8.8-1.8c4.4,0,8.3,0.9,10.9,2.6
		c3.1,1.8,4.8,3.9,5.7,6.6c0.9,2.6,1.3,6.6,1.3,11.8V98.2z"/>
	<path d="M324.1,73.2v58.2h-15.3v-24.5h-4.4v24.5h-15.3V73.2h15.3v20.6h4.4v-21h15.3V73.2z"/>
	<path d="M364.3,73.2v38.9c0,4.4,0,7.4-0.4,9.2s-1.3,3.5-2.6,5.7c-1.3,1.8-3.1,3.5-5.7,4.4c-2.6,0.9-5.3,1.3-8.3,1.3
		c-3.5,0-6.6-0.4-9.2-1.8c-2.6-1.3-4.8-2.6-6.1-4.4c-0.9-2.2-1.8-4.4-1.8-6.1c-0.4-2.2-0.4-6.6-0.4-13.1V72.8h15.3v43.8
		c0,2.6,0,4.4,0.4,4.8c0.4,0.9,0.9,0.9,1.8,0.9c0.9,0,1.8-0.4,1.8-1.3c0-0.9,0.4-2.6,0.4-5.7V72.4h14.9V73.2z"/>
	<path d="M400.7,73.2v11.8h-9.2v46.4h-15.3V84.6h-8.8V72.8h33.3V73.2z"/>
	<path d="M429.1,73.2v11.8l-11.4,35h11.4v11.8h-28v-8.3l11.8-38.1h-10.1V73.7h26.3V73.2z"/>
</g>
<g>
	<path d="M366.5,1.5h11.4c7.4,0,12.3,0.4,14.9,0.9c2.6,0.4,4.4,1.8,5.7,3.5c1.3,1.8,2.2,3.1,2.6,5.3s0.4,5.7,0.4,10.9v20.6
		c0,5.3-0.4,8.8-0.9,10.5c-0.4,1.8-1.3,3.1-2.6,3.9c-1.3,0.9-2.6,1.8-4.4,2.2c-1.8,0.4-4.4,0.4-8.3,0.4h-19.3V1.5H366.5z
		 M381.8,11.5v38.1c2.2,0,3.5-0.4,3.9-1.3s0.9-3.1,0.9-7V18.5c0-2.6,0-4.4-0.4-5.3s-0.4-1.3-1.3-1.8C384,11.1,383.1,11.5,381.8,11.5
		z"/>
	<path d="M360.4,1.5v58.2h-13.1l-7.9-26.3v26.3h-12.7V1.5h12.7l8.3,26.3V1.5C347.7,1.5,360.4,1.5,360.4,1.5z"/>
	<path d="M315.3,1.5l8.8,58.2h-15.3l-0.9-10.5h-5.3l-0.9,10.5H286l7.9-58.2C293.9,1.5,315.3,1.5,315.3,1.5z M307.4,38.7
		c-0.9-6.6-1.8-14.9-2.2-24.5c-1.8,10.9-2.6,19.3-3.1,24.5H307.4z"/>
	<path d="M249.7,1.5h10.5c7,0,11.8,0.4,14.4,0.9s4.4,1.8,6.1,4.4c1.8,2.2,2.2,5.7,2.2,10.9c0,4.4-0.4,7.4-1.8,9.2
		c-1.3,1.8-3.5,2.6-6.6,2.6c3.1,0.9,4.8,1.8,6.1,3.1c0.9,1.3,1.8,2.2,1.8,3.5c0.4,0.9,0.4,3.9,0.4,8.8v15.3h-14V40.4
		c0-3.1-0.4-5.3-0.9-5.7c-0.4-0.9-1.8-1.3-3.9-1.3v26.3h-15.3V1.5H249.7z M265,11.5v13.1c1.8,0,3.1-0.4,3.5-0.9
		c0.9-0.4,0.9-2.2,0.9-4.4v-3.5c0-1.8-0.4-3.1-0.9-3.5C267.6,11.5,266.7,11.5,265,11.5z"/>
	<g>
		<path d="M209,1.5h14.9c4.8,0,8.3,0.4,10.9,1.3s4.4,2.2,6.1,4.4c1.3,2.2,2.2,5.7,2.2,10.9c0,3.5-0.4,5.7-1.8,7
			c-0.9,1.3-3.1,2.2-6.1,3.1c3.5,0.9,5.7,2.2,7,3.9c1.3,1.8,1.8,4.8,1.8,8.3v5.3c0,3.9-0.4,7-1.3,8.8c-0.9,1.8-2.2,3.1-4.4,3.9
			c-1.8,0.9-6.1,0.9-12.3,0.9h-17.5V1.5H209z M224.3,11.5v13.1c0.4,0,1.3,0,1.3,0c1.3,0,2.6-0.4,2.6-1.3s0.4-2.6,0.4-6.1
			c0-1.8,0-3.1-0.4-3.9s-0.9-1.3-1.3-1.3C226.5,12,225.6,11.5,224.3,11.5z M224.3,33.4v16.2c2.2,0,3.5-0.4,3.9-0.9
			c0.4-0.4,0.9-2.2,0.9-4.4v-5.7c0-2.6-0.4-3.9-0.9-4.4C227.8,33.9,226.5,33.4,224.3,33.4z"/>
	</g>
</g>
<g>
	<g>
		<path class="st0" d="M78.6,194.9c-0.9,0-1.8-0.4-2.6-0.4C76.8,194.5,77.7,194.5,78.6,194.9z"/>
		<path class="st0" d="M72.4,193.6c-1.8-0.4-3.1-0.9-4.8-1.3C69.4,192.7,70.7,193.2,72.4,193.6z"/>
		<path class="st0" d="M89.1,196.2c-0.4,0-0.9,0-1.3,0C88.2,196.2,88.6,196.2,89.1,196.2z"/>
		<path class="st0" d="M135.5,192.3c-1.3,0.4-2.6,0.9-3.9,0.9C132.8,193.2,134.1,192.7,135.5,192.3z"/>
		<path class="st0" d="M107,196.7C106.6,196.7,106.6,196.7,107,196.7C106.6,196.7,106.6,196.7,107,196.7z"/>
		<path class="st0" d="M157.3,134.9c-0.4-5.7-0.4-11.8,0.4-13.6c-3.1,2.2-7.9,7-8.8,9.6c-0.9-8.3-29.3-70-69.1-91
			c16.2,26.7,17.1,36.8,17.1,43.3c0,12.7-8.3,29.3-8.3,35.9s0,18.4,0.9,21.9c-8.3-7.9-10.1-44.2-6.6-53c-11.8,4.4-26.3,37.6-28,42.4
			c-3.5-4.4-5.7-7.4-7.9-8.3c1.3,3.5,1.8,6.6,1.8,9.2C48.4,142,37,145.9,37,159.5c0,7.9,3.9,22.8,14.4,27.6
			c4.8,2.2,9.6,3.5,14.4,5.3c-2.2-6.1-2.6-12.7-2.6-16.6c0-5.7,4.4-22.8,13.6-32.4c0,14,10.9,36.8,18.4,38.9
			c-4.4-17.9,12.7-26.3,12.7-48.1c0-7,0-14-2.2-17.9c7.9,5.3,17.5,21.4,21,32.4c2.2,0,3.9-2.6,5.3-4.4c-2.6,17.1,8.8,19.7,8.8,32.4
			c0,5.7-1.3,11.4-4.4,15.8c2.6-0.9,5.3-1.8,7.4-2.6c12.3-4.8,20.6-19.3,21.9-25.8C168.7,153.8,157.8,140.6,157.3,134.9z"/>
	</g>
	<circle class="st1" cx="101.8" cy="102.1" r="97.2"/>
</g>
</svg>
